# xmcd CD database file
#
# Track frame offsets:
#	150
#	24300
#	32537
#
# Disc length: 714 seconds
#
# Revision: 0
# Processed by: cddbd v1.5.1PL0 Copyright (c) Steve Scherf et al.
# Submitted via: CDex 1.51
#
DISCID=1502c803
DTITLE=SING LIKE TALKING - HOLD ON
DYEAR=1992
DGENRE=JPop
TTITLE0=HOLD ON
TTITLE1=Sunday Afternoon
TTITLE2=きっと何時の日か
EXTD=YEAR: 1992
EXTT0=
EXTT1=
EXTT2=
PLAYORDER=
